<svg width="23" height="22" viewBox="0 0 23 22" fill="none" xmlns="http://www.w3.org/2000/svg">
<path d="M19.7851 6.67391L8.78513 17.6739C8.72128 17.7378 8.64546 17.7885 8.56199 17.8231C8.47853 17.8577 8.38907 17.8755 8.29872 17.8755C8.20837 17.8755 8.11891 17.8577 8.03545 17.8231C7.95199 17.7885 7.87617 17.7378 7.81232 17.6739L2.99982 12.8614C2.87081 12.7324 2.79834 12.5574 2.79834 12.375C2.79834 12.1926 2.87081 12.0176 2.99982 11.8886C3.12882 11.7596 3.30378 11.6871 3.48622 11.6871C3.66866 11.6871 3.84363 11.7596 3.97263 11.8886L8.29872 16.2155L18.8123 5.70109C18.9413 5.57209 19.1163 5.49962 19.2987 5.49962C19.4812 5.49962 19.6561 5.57209 19.7851 5.70109C19.9141 5.8301 19.9866 6.00506 19.9866 6.1875C19.9866 6.36994 19.9141 6.5449 19.7851 6.67391Z" fill="#9E78CF"/>
</svg>
